HIERARCHY
ROOT hip
{
	OFFSET 0.000000 103.560692 0.219151
	CHANNELS 6 Xposition Yposition Zposition Zrotation Xrotation Yrotation
	JOINT pelvis
	{
		OFFSET 0.000000 1.955040 1.591925
		CHANNELS 3 Zrotation Xrotation Yrotation
		JOINT lThigh
		{
			OFFSET 8.341582 -7.629402 -0.646910
			CHANNELS 3 Zrotation Xrotation Yrotation
			JOINT lShin
			{
				OFFSET 2.185763 -45.093132 -0.705710
				CHANNELS 3 Zrotation Xrotation Yrotation
				JOINT lFoot
				{
					OFFSET 0.730976 -46.379768 -2.264282
					CHANNELS 3 Zrotation Xrotation Yrotation
					JOINT lToe
					{
						OFFSET 2.797621 -4.200020 10.742415
						CHANNELS 3 Zrotation Xrotation Yrotation
						JOINT lBigToe
						{
							OFFSET -2.433708 -0.269072 1.841711
							CHANNELS 3 Zrotation Xrotation Yrotation
							End Site
							{
								OFFSET -10.527346 -33.657166 -1.340707
							}
						}
					}
				}
			}
		}
		JOINT rThigh
		{
			OFFSET -8.341582 -7.629402 -0.646910
			CHANNELS 3 Zrotation Xrotation Yrotation
			JOINT rShin
			{
				OFFSET -2.185763 -45.093132 -0.705710
				CHANNELS 3 Zrotation Xrotation Yrotation
				JOINT rFoot
				{
					OFFSET -0.730976 -46.379768 -2.264282
					CHANNELS 3 Zrotation Xrotation Yrotation
					JOINT rToe
					{
						OFFSET -2.797621 -4.200019 10.742415
						CHANNELS 3 Zrotation Xrotation Yrotation
						JOINT rBigToe
						{
							OFFSET 2.433708 -0.269072 1.841711
							CHANNELS 3 Zrotation Xrotation Yrotation
							End Site
							{
								OFFSET 0.000000 24.298409 -0.425647
							}
						}
					}
				}
			}
		}
	}
	JOINT abdomen
	{
		OFFSET 0.000000 1.841293 -3.551421
		CHANNELS 3 Zrotation Xrotation Yrotation
		JOINT abdomen2
		{
			OFFSET 0.000000 5.439911 3.419600
			CHANNELS 3 Zrotation Xrotation Yrotation
			JOINT chest
			{
				OFFSET 0.000000 14.715073 -2.918270
				CHANNELS 3 Zrotation Xrotation Yrotation
				JOINT neck
				{
					OFFSET 0.000000 26.294655 -1.248052
					CHANNELS 3 Zrotation Xrotation Yrotation
					JOINT head
					{
						OFFSET 0.000000 8.807068 1.063695
						CHANNELS 3 Zrotation Xrotation Yrotation
						JOINT rEye
						{
							OFFSET -3.030866 6.632080 7.702687
							CHANNELS 3 Zrotation Xrotation Yrotation
							End Site
							{
								OFFSET 2.969555 -11.022598 8.626689
							}
						}
						JOINT lEye
						{
							OFFSET 3.030866 6.632080 7.702687
							CHANNELS 3 Zrotation Xrotation Yrotation
							End Site
							{
								OFFSET 0.000000 -15.881760 10.104412
							}
						}
						JOINT upperJaw
						{
							OFFSET 0.000000 1.922699 2.891887
							CHANNELS 3 Zrotation Xrotation Yrotation
							End Site
							{
								OFFSET 0.000000 -19.386169 10.230839
							}
						}
						JOINT lowerJaw
						{
							OFFSET 0.000000 1.857620 2.686640
							CHANNELS 3 Zrotation Xrotation Yrotation
							JOINT tongueBase
							{
								OFFSET 0.000000 -3.019135 2.746916
								CHANNELS 3 Zrotation Xrotation Yrotation
								JOINT tongue01
								{
									OFFSET 0.000000 0.664124 0.223355
									CHANNELS 3 Zrotation Xrotation Yrotation
									JOINT tongue02
									{
										OFFSET 0.000000 0.339737 0.715627
										CHANNELS 3 Zrotation Xrotation Yrotation
										JOINT tongue03
										{
											OFFSET 0.000000 0.123444 0.730634
											CHANNELS 3 Zrotation Xrotation Yrotation
											JOINT tongue04
											{
												OFFSET 0.000000 0.017212 0.737415
												CHANNELS 3 Zrotation Xrotation Yrotation
												JOINT tongue05
												{
													OFFSET 0.000000 -0.021011 0.632440
													CHANNELS 3 Zrotation Xrotation Yrotation
													JOINT tongueTip
													{
														OFFSET 0.000000 -0.014404 0.601796
														CHANNELS 3 Zrotation Xrotation Yrotation
														End Site
														{
															OFFSET -14.139406 -2.625778 0.472826
														}
													}
												}
											}
										}
									}
								}
							}
						}
					}
				}
				JOINT rCollar
				{
					OFFSET -2.109295 21.452370 3.768136
					CHANNELS 3 Zrotation Xrotation Yrotation
					JOINT rShldr
					{
						OFFSET -11.491621 -2.568573 -4.940255
						CHANNELS 3 Zrotation Xrotation Yrotation
						JOINT rForeArm
						{
							OFFSET -28.789030 -0.213806 2.098380
							CHANNELS 3 Zrotation Xrotation Yrotation
							JOINT rHand
							{
								OFFSET -22.260895 -0.869583 10.391586
								CHANNELS 3 Zrotation Xrotation Yrotation
								JOINT rThumb1
								{
									OFFSET -0.628075 0.137405 2.362409
									CHANNELS 3 Zrotation Xrotation Yrotation
									JOINT rThumb2
									{
										OFFSET 0.085205 -0.600235 3.826079
										CHANNELS 3 Zrotation Xrotation Yrotation
										JOINT rThumb3
										{
											OFFSET -1.255478 -0.879211 2.439162
											CHANNELS 3 Zrotation Xrotation Yrotation
											End Site
											{
												OFFSET -2.963715 0.538574 4.059553
											}
										}
									}
								}
								JOINT rCarpal1
								{
									OFFSET -0.855530 1.026047 1.621985
									CHANNELS 3 Zrotation Xrotation Yrotation
									JOINT rIndex1
									{
										OFFSET -3.951324 0.390884 3.873290
										CHANNELS 3 Zrotation Xrotation Yrotation
										JOINT rIndex2
										{
											OFFSET -3.071884 -1.259598 2.506104
											CHANNELS 3 Zrotation Xrotation Yrotation
											JOINT rIndex3
											{
												OFFSET -1.394112 -1.446640 1.203302
												CHANNELS 3 Zrotation Xrotation Yrotation
												End Site
												{
													OFFSET -3.392448 -1.258026 0.533405
												}
											}
										}
									}
									JOINT rMid1
									{
										OFFSET -5.422974 0.107910 2.002650
										CHANNELS 3 Zrotation Xrotation Yrotation
										JOINT rMid2
										{
											OFFSET -3.599533 -1.323776 2.090647
											CHANNELS 3 Zrotation Xrotation Yrotation
											JOINT rMid3
											{
												OFFSET -1.360191 -1.598495 1.068055
												CHANNELS 3 Zrotation Xrotation Yrotation
												End Site
												{
													OFFSET -4.087769 -0.460876 0.069540
												}
											}
										}
									}
								}
								JOINT rCarpal2
								{
									OFFSET -1.942749 0.556229 -0.337217
									CHANNELS 3 Zrotation Xrotation Yrotation
									JOINT rRing1
									{
										OFFSET -4.762787 -0.121170 2.349089
										CHANNELS 3 Zrotation Xrotation Yrotation
										JOINT rRing2
										{
											OFFSET -3.380348 -1.337097 1.356700
											CHANNELS 3 Zrotation Xrotation Yrotation
											JOINT rRing3
											{
												OFFSET -1.430290 -1.499649 0.914224
												CHANNELS 3 Zrotation Xrotation Yrotation
												End Site
												{
													OFFSET -1.783272 -2.215851 -0.391895
												}
											}
										}
									}
									JOINT rPinky1
									{
										OFFSET -5.232559 -1.313721 0.336493
										CHANNELS 3 Zrotation Xrotation Yrotation
										JOINT rPinky2
										{
											OFFSET -2.217606 -1.389603 0.800693
											CHANNELS 3 Zrotation Xrotation Yrotation
											JOINT rPinky3
											{
												OFFSET -0.886887 -1.462280 0.774199
												CHANNELS 3 Zrotation Xrotation Yrotation
												End Site
												{
													OFFSET 14.139406 -2.625778 0.472826
												}
											}
										}
									}
								}
							}
						}
					}
				}
				JOINT lCollar
				{
					OFFSET 2.109295 21.452370 3.768136
					CHANNELS 3 Zrotation Xrotation Yrotation
					JOINT lShldr
					{
						OFFSET 11.491621 -2.568573 -4.940255
						CHANNELS 3 Zrotation Xrotation Yrotation
						JOINT lForeArm
						{
							OFFSET 28.789030 -0.213806 2.098380
							CHANNELS 3 Zrotation Xrotation Yrotation
							JOINT lHand
							{
								OFFSET 22.260895 -0.869583 10.391586
								CHANNELS 3 Zrotation Xrotation Yrotation
								JOINT lThumb1
								{
									OFFSET 0.628075 0.137405 2.362409
									CHANNELS 3 Zrotation Xrotation Yrotation
									JOINT lThumb2
									{
										OFFSET -0.085205 -0.600235 3.826079
										CHANNELS 3 Zrotation Xrotation Yrotation
										JOINT lThumb3
										{
											OFFSET 1.255478 -0.879211 2.439162
											CHANNELS 3 Zrotation Xrotation Yrotation
											End Site
											{
												OFFSET 2.963715 0.538574 4.059553
											}
										}
									}
								}
								JOINT lCarpal1
								{
									OFFSET 0.855530 1.026047 1.621985
									CHANNELS 3 Zrotation Xrotation Yrotation
									JOINT lIndex1
									{
										OFFSET 3.951324 0.390884 3.873290
										CHANNELS 3 Zrotation Xrotation Yrotation
										JOINT lIndex2
										{
											OFFSET 3.071884 -1.259598 2.506104
											CHANNELS 3 Zrotation Xrotation Yrotation
											JOINT lIndex3
											{
												OFFSET 1.394112 -1.446640 1.203302
												CHANNELS 3 Zrotation Xrotation Yrotation
												End Site
												{
													OFFSET 3.392448 -1.258026 0.533405
												}
											}
										}
									}
									JOINT lMid1
									{
										OFFSET 5.422974 0.107910 2.002650
										CHANNELS 3 Zrotation Xrotation Yrotation
										JOINT lMid2
										{
											OFFSET 3.599533 -1.323776 2.090647
											CHANNELS 3 Zrotation Xrotation Yrotation
											JOINT lMid3
											{
												OFFSET 1.360191 -1.598495 1.068055
												CHANNELS 3 Zrotation Xrotation Yrotation
												End Site
												{
													OFFSET 4.087769 -0.460876 0.069540
												}
											}
										}
									}
								}
								JOINT lCarpal2
								{
									OFFSET 1.942749 0.556229 -0.337217
									CHANNELS 3 Zrotation Xrotation Yrotation
									JOINT lRing1
									{
										OFFSET 4.762787 -0.121170 2.349089
										CHANNELS 3 Zrotation Xrotation Yrotation
										JOINT lRing2
										{
											OFFSET 3.380348 -1.337097 1.356700
											CHANNELS 3 Zrotation Xrotation Yrotation
											JOINT lRing3
											{
												OFFSET 1.430290 -1.499649 0.914224
												CHANNELS 3 Zrotation Xrotation Yrotation
												End Site
												{
													OFFSET 1.783272 -2.215851 -0.391895
												}
											}
										}
									}
									JOINT lPinky1
									{
										OFFSET 5.232559 -1.313721 0.336493
										CHANNELS 3 Zrotation Xrotation Yrotation
										JOINT lPinky2
										{
											OFFSET 2.217606 -1.389603 0.800693
											CHANNELS 3 Zrotation Xrotation Yrotation
											JOINT lPinky3
											{
												OFFSET 0.886887 -1.462280 0.774199
												CHANNELS 3 Zrotation Xrotation Yrotation
												End Site
												{
													OFFSET -10.295957 -17.050110 17.461308
												}
											}
										}
									}
								}
							}
						}
					}
				}
				JOINT rPectoral
				{
					OFFSET -6.358840 6.360771 6.369920
					CHANNELS 3 Zrotation Xrotation Yrotation
					End Site
					{
						OFFSET 10.295957 -17.050110 17.461308
					}
				}
				JOINT lPectoral
				{
					OFFSET 6.358840 6.360771 6.369920
					CHANNELS 3 Zrotation Xrotation Yrotation
					End Site
					{
						OFFSET 10.295957 -17.050110 17.461308
					}
				}
			}
		}
	}
}
MOTION
Frames:	4
Frame Time:	0.00833333
-0.904661 0.199097 5.673690 2.826001 1.185659 -71.199387 0.000000 0.000000 0.000000 -0.980006 -11.803194 10.283147 0.840148 24.736969 0.418596 -2.947357 -1.828747 11.621253 0.000000 0.000000 0.000000 0.000000 0.000000 0.000000 2.913852 -13.163345 -7.979867 -0.863964 22.202026 -0.359369 -0.346477 -2.702074 -10.571928 0.000000 0.000000 0.000000 0.000000 0.000000 0.000000 0.000000 0.000000 0.000000 -2.329619 9.776009 -2.730319 1.514170 -5.149620 -0.775506 -13.864296 -1.449460 -8.666888 20.227453 12.674040 -16.245134 0.000000 0.000000 0.000000 0.000000 0.000000 0.000000 0.000000 0.000000 0.000000 0.000000 0.000000 0.000000 0.000000 0.000000 0.000000 0.000000 0.000000 0.000000 0.000000 0.000000 0.000000 0.000000 0.000000 0.000000 0.000000 0.000000 0.000000 0.000000 0.000000 0.000000 0.000000 0.000000 0.000000 1.005026 -4.457774 26.158192 69.767052 -21.959755 -15.372430 -3.904245 3.152761 24.392521 0.000000 0.000000 0.000000 -3.683647 7.568618 -37.263580 -0.521451 -4.065397 4.748854 0.000000 0.000000 0.000000 0.000000 0.000000 0.000000 2.932509 3.077809 -1.696276 -16.520334 -9.538442 -4.612900 0.000000 0.000000 0.000000 -3.674220 -0.286563 -4.611559 -18.025385 -7.769807 -5.343670 0.000000 0.000000 0.000000 -0.042491 5.872980 0.828325 -2.143522 2.948137 -9.589356 -18.472721 -6.951544 -4.630789 0.000000 0.000000 0.000000 -15.680961 4.379838 -16.697607 -18.444633 -4.749706 -6.966295 0.000000 0.000000 0.000000 -1.005026 -4.457774 -26.158192 -71.951843 -11.754790 14.840970 6.019497 3.716618 -31.668869 0.000000 0.000000 0.000000 3.683647 7.568618 37.263580 0.521451 -4.065397 -4.748854 0.000000 0.000000 0.000000 0.000000 0.000000 0.000000 -2.932506 3.077815 1.696297 16.520334 -9.538442 4.612900 0.000000 0.000000 0.000000 3.674220 -0.286563 4.611559 18.025385 -7.769807 5.343670 0.000000 0.000000 0.000000 0.013356 3.297660 -0.463973 2.143522 2.948137 9.589356 18.472721 -6.951544 4.630789 0.000000 0.000000 0.000000 15.680961 4.379838 16.697607 18.444633 -4.749706 6.966295 0.000000 0.000000 0.000000 -0.838774 0.020650 2.461073 0.838774 0.020650 -2.461073 
-0.965532 0.218697 5.589080 2.789272 1.013002 -71.428925 0.000000 0.000000 0.000000 -0.971775 -11.963284 10.015627 0.838781 25.027287 0.426753 -2.651829 -1.734031 11.520328 0.000000 0.000000 0.000000 0.000000 0.000000 0.000000 2.957603 -13.111638 -7.774674 -0.863740 22.126089 -0.359030 -0.340472 -2.650885 -10.571701 0.000000 0.000000 0.000000 0.000000 0.000000 0.000000 0.000000 0.000000 0.000000 -2.366720 9.809508 -2.582510 1.461079 -5.146790 -0.736265 -13.790197 -1.481160 -8.678457 20.212517 12.514467 -16.255075 0.000000 0.000000 0.000000 0.000000 0.000000 0.000000 0.000000 0.000000 0.000000 0.000000 0.000000 0.000000 0.000000 0.000000 0.000000 0.000000 0.000000 0.000000 0.000000 0.000000 0.000000 0.000000 0.000000 0.000000 0.000000 0.000000 0.000000 0.000000 0.000000 0.000000 0.000000 0.000000 0.000000 1.005026 -4.457774 26.158192 69.769768 -22.025709 -15.337665 -3.877369 3.142564 24.289257 0.000000 0.000000 0.000000 -3.683647 7.568618 -37.263580 -0.521451 -4.065397 4.748854 0.000000 0.000000 0.000000 0.000000 0.000000 0.000000 2.932509 3.077809 -1.696276 -16.520334 -9.538442 -4.612900 0.000000 0.000000 0.000000 -3.674220 -0.286563 -4.611559 -18.025385 -7.769807 -5.343670 0.000000 0.000000 0.000000 -0.044088 5.988849 0.844775 -2.143522 2.948137 -9.589356 -18.472721 -6.951544 -4.630789 0.000000 0.000000 0.000000 -15.680961 4.379838 -16.697607 -18.444633 -4.749706 -6.966295 0.000000 0.000000 0.000000 -1.005026 -4.457774 -26.158192 -71.993584 -11.708920 14.718291 6.070994 3.725153 -31.829334 0.000000 0.000000 0.000000 3.683647 7.568618 37.263580 0.521451 -4.065397 -4.748854 0.000000 0.000000 0.000000 0.000000 0.000000 0.000000 -2.932506 3.077815 1.696297 16.520334 -9.538442 4.612900 0.000000 0.000000 0.000000 3.674220 -0.286563 4.611559 18.025385 -7.769807 5.343670 0.000000 0.000000 0.000000 0.013539 3.318589 -0.466925 2.143522 2.948137 9.589356 18.472721 -6.951544 4.630789 0.000000 0.000000 0.000000 15.680961 4.379838 16.697607 18.444633 -4.749706 6.966295 0.000000 0.000000 0.000000 -0.838774 0.020650 2.461073 0.838774 0.020650 -2.461073 
-1.002870 0.228600 5.504850 2.867301 0.823751 -71.725098 0.000000 0.000000 0.000000 -1.055554 -12.061123 9.669995 0.837982 25.165655 0.430300 -2.344565 -1.674916 11.415340 0.000000 0.000000 0.000000 0.000000 0.000000 0.000000 2.956333 -13.137367 -7.480784 -0.863182 22.160103 -0.359290 -0.354255 -2.685382 -10.568910 0.000000 0.000000 0.000000 0.000000 0.000000 0.000000 0.000000 0.000000 0.000000 -2.476580 9.814708 -2.402230 1.414380 -5.105469 -0.690235 -13.685099 -1.511050 -8.682659 20.193119 12.299162 -16.250669 0.000000 0.000000 0.000000 0.000000 0.000000 0.000000 0.000000 0.000000 0.000000 0.000000 0.000000 0.000000 0.000000 0.000000 0.000000 0.000000 0.000000 0.000000 0.000000 0.000000 0.000000 0.000000 0.000000 0.000000 0.000000 0.000000 0.000000 0.000000 0.000000 0.000000 0.000000 0.000000 0.000000 1.005026 -4.457774 26.158192 69.776817 -22.173286 -15.258335 -3.841444 3.128834 24.150356 0.000000 0.000000 0.000000 -3.683647 7.568618 -37.263580 -0.521451 -4.065397 4.748854 0.000000 0.000000 0.000000 0.000000 0.000000 0.000000 2.932509 3.077809 -1.696276 -16.520334 -9.538442 -4.612900 0.000000 0.000000 0.000000 -3.674220 -0.286563 -4.611559 -18.025385 -7.769807 -5.343670 0.000000 0.000000 0.000000 -0.047672 6.231799 0.879305 -2.143522 2.948137 -9.589356 -18.472721 -6.951544 -4.630789 0.000000 0.000000 0.000000 -15.680961 4.379838 -16.697607 -18.444633 -4.749706 -6.966295 0.000000 0.000000 0.000000 -1.005026 -4.457774 -26.158192 -72.026680 -11.731612 14.577212 6.122919 3.733525 -31.990561 0.000000 0.000000 0.000000 3.683647 7.568618 37.263580 0.521451 -4.065397 -4.748854 0.000000 0.000000 0.000000 0.000000 0.000000 0.000000 -2.932506 3.077815 1.696297 16.520334 -9.538442 4.612900 0.000000 0.000000 0.000000 3.674220 -0.286563 4.611559 18.025385 -7.769807 5.343670 0.000000 0.000000 0.000000 0.013456 3.308220 -0.465463 2.143522 2.948137 9.589356 18.472721 -6.951544 4.630789 0.000000 0.000000 0.000000 15.680961 4.379838 16.697607 18.444633 -4.749706 6.966295 0.000000 0.000000 0.000000 -0.838774 0.020650 2.461073 0.838774 0.020650 -2.461073 
-1.059900 0.234993 5.428180 2.922992 0.698141 -72.203331 0.000000 0.000000 0.000000 -1.205477 -12.115106 9.231420 0.837480 25.208796 0.429911 -1.969973 -1.719145 11.288628 0.000000 0.000000 0.000000 0.000000 0.000000 0.000000 2.930208 -13.197279 -7.159409 -0.862461 22.262936 -0.360185 -0.379510 -2.756135 -10.564126 0.000000 0.000000 0.000000 0.000000 0.000000 0.000000 0.000000 0.000000 0.000000 -2.605259 9.819167 -2.203920 1.359040 -5.055029 -0.640486 -13.593396 -1.542459 -8.683377 20.174431 12.083919 -16.231754 0.000000 0.000000 0.000000 0.000000 0.000000 0.000000 0.000000 0.000000 0.000000 0.000000 0.000000 0.000000 0.000000 0.000000 0.000000 0.000000 0.000000 0.000000 0.000000 0.000000 0.000000 0.000000 0.000000 0.000000 0.000000 0.000000 0.000000 0.000000 0.000000 0.000000 0.000000 0.000000 0.000000 1.005026 -4.457774 26.158192 69.789642 -22.316202 -15.168894 -3.803882 3.114331 24.004269 0.000000 0.000000 0.000000 -3.683647 7.568618 -37.263580 -0.521451 -4.065397 4.748854 0.000000 0.000000 0.000000 0.000000 0.000000 0.000000 2.932509 3.077809 -1.696276 -16.520334 -9.538442 -4.612900 0.000000 0.000000 0.000000 -3.674220 -0.286563 -4.611559 -18.025385 -7.769807 -5.343670 0.000000 0.000000 0.000000 -0.052039 6.504659 0.918142 -2.143522 2.948137 -9.589356 -18.472721 -6.951544 -4.630789 0.000000 0.000000 0.000000 -15.680961 4.379838 -16.697607 -18.444633 -4.749706 -6.966295 0.000000 0.000000 0.000000 -1.005026 -4.457774 -26.158192 -72.056190 -11.766083 14.441422 6.177568 3.742065 -32.159756 0.000000 0.000000 0.000000 3.683647 7.568618 37.263580 0.521451 -4.065397 -4.748854 0.000000 0.000000 0.000000 0.000000 0.000000 0.000000 -2.932506 3.077815 1.696297 16.520334 -9.538442 4.612900 0.000000 0.000000 0.000000 3.674220 -0.286563 4.611559 18.025385 -7.769807 5.343670 0.000000 0.000000 0.000000 0.013338 3.294329 -0.463504 2.143522 2.948137 9.589356 18.472721 -6.951544 4.630789 0.000000 0.000000 0.000000 15.680961 4.379838 16.697607 18.444633 -4.749706 6.966295 0.000000 0.000000 0.000000 -0.838774 0.020650 2.461073 0.838774 0.020650 -2.461073 
